<svg width="24" height="24" viewBox="0 0 24 24" fill="none" xmlns="http://www.w3.org/2000/svg">
<g clip-path="url(#clip0_23_6)">
<g filter="url(#filter0_dd_23_6)">
<path d="M4 4L11.07 21L13.58 13.61L21 11.07L4 4Z" fill="#F472B6"/>
<path fill-rule="evenodd" clip-rule="evenodd" d="M3.29289 3.29292C3.57926 3.00656 4.01006 2.92118 4.384 3.0767L21.384 10.1467C21.7678 10.3063 22.0128 10.6867 21.9995 11.1022C21.9861 11.5176 21.7171 11.8815 21.3239 12.0161L14.3688 14.397L12.0169 21.3216C11.883 21.7156 11.5192 21.9856 11.1033 21.9995C10.6875 22.0133 10.3065 21.7682 10.1467 21.384L3.07666 4.38403C2.92115 4.0101 3.00653 3.57929 3.29289 3.29292ZM5.85413 5.85416L10.9755 18.1687L12.6331 13.2884C12.7328 12.995 12.9629 12.7643 13.2561 12.6639L18.1775 10.9792L5.85413 5.85416Z" fill="#9D174D"/>
</g>
</g>
<defs>
<filter id="filter0_dd_23_6" x="-3.05176e-05" y="1" width="25" height="25" filterUnits="userSpaceOnUse" color-interpolation-filters="sRGB">
<feFlood flood-opacity="0" result="BackgroundImageFix"/>
<feColorMatrix in="SourceAlpha" type="matrix" values="0 0 0 0 0 0 0 0 0 0 0 0 0 0 0 0 0 0 127 0" result="hardAlpha"/>
<feMorphology radius="1" operator="erode" in="SourceAlpha" result="effect1_dropShadow_23_6"/>
<feOffset dy="1"/>
<feGaussianBlur stdDeviation="1"/>
<feComposite in2="hardAlpha" operator="out"/>
<feColorMatrix type="matrix" values="0 0 0 0 0 0 0 0 0 0 0 0 0 0 0 0 0 0 0.1 0"/>
<feBlend mode="normal" in2="BackgroundImageFix" result="effect1_dropShadow_23_6"/>
<feColorMatrix in="SourceAlpha" type="matrix" values="0 0 0 0 0 0 0 0 0 0 0 0 0 0 0 0 0 0 127 0" result="hardAlpha"/>
<feOffset dy="1"/>
<feGaussianBlur stdDeviation="1.5"/>
<feComposite in2="hardAlpha" operator="out"/>
<feColorMatrix type="matrix" values="0 0 0 0 0 0 0 0 0 0 0 0 0 0 0 0 0 0 0.1 0"/>
<feBlend mode="normal" in2="effect1_dropShadow_23_6" result="effect2_dropShadow_23_6"/>
<feBlend mode="normal" in="SourceGraphic" in2="effect2_dropShadow_23_6" result="shape"/>
</filter>
<clipPath id="clip0_23_6">
<rect width="24" height="24" fill="white"/>
</clipPath>
</defs>
</svg>
